<svg width="172" height="113" viewBox="0 0 172 113" fill="none" xmlns="http://www.w3.org/2000/svg">
<rect x="0.5" y="0.5" width="171" height="112" rx="19.5" fill="#E6B5B1" fill-opacity="0.6"/>
<rect x="0.5" y="0.5" width="171" height="112" rx="19.5" stroke="white" stroke-dasharray="22 22"/>
<path d="M15.826 72.333V77.184C15.826 77.866 15.991 78.372 16.321 78.702C16.6583 79.032 17.124 79.197 17.718 79.197C18.3047 79.197 18.763 79.032 19.093 78.702C19.4303 78.372 19.599 77.866 19.599 77.184V72.333H20.6V77.173C20.6 77.811 20.4717 78.35 20.215 78.79C19.9583 79.2227 19.61 79.5453 19.17 79.758C18.7373 79.9707 18.2497 80.077 17.707 80.077C17.1643 80.077 16.673 79.9707 16.233 79.758C15.8003 79.5453 15.4557 79.2227 15.199 78.79C14.9497 78.35 14.825 77.811 14.825 77.173V72.333H15.826ZM23.2709 75.083C23.4689 74.7383 23.7622 74.4523 24.1509 74.225C24.5469 73.9903 25.0052 73.873 25.5259 73.873C26.0612 73.873 26.5452 74.0013 26.9779 74.258C27.4179 74.5147 27.7625 74.8777 28.0119 75.347C28.2612 75.809 28.3859 76.348 28.3859 76.964C28.3859 77.5727 28.2612 78.1153 28.0119 78.592C27.7625 79.0687 27.4179 79.439 26.9779 79.703C26.5452 79.967 26.0612 80.099 25.5259 80.099C25.0125 80.099 24.5579 79.9853 24.1619 79.758C23.7732 79.5233 23.4762 79.2337 23.2709 78.889V82.86H22.2699V73.972H23.2709V75.083ZM27.3629 76.964C27.3629 76.5093 27.2712 76.1133 27.0879 75.776C26.9045 75.4387 26.6552 75.182 26.3399 75.006C26.0319 74.83 25.6909 74.742 25.3169 74.742C24.9502 74.742 24.6092 74.8337 24.2939 75.017C23.9859 75.193 23.7365 75.4533 23.5459 75.798C23.3625 76.1353 23.2709 76.5277 23.2709 76.975C23.2709 77.4297 23.3625 77.8293 23.5459 78.174C23.7365 78.5113 23.9859 78.7717 24.2939 78.955C24.6092 79.131 24.9502 79.219 25.3169 79.219C25.6909 79.219 26.0319 79.131 26.3399 78.955C26.6552 78.7717 26.9045 78.5113 27.0879 78.174C27.2712 77.8293 27.3629 77.426 27.3629 76.964ZM30.7044 71.86V80H29.7034V71.86H30.7044ZM35.0395 80.099C34.4748 80.099 33.9615 79.9707 33.4995 79.714C33.0448 79.4573 32.6855 79.0943 32.4215 78.625C32.1648 78.1483 32.0365 77.5983 32.0365 76.975C32.0365 76.359 32.1685 75.8163 32.4325 75.347C32.7038 74.8703 33.0705 74.5073 33.5325 74.258C33.9945 74.0013 34.5115 73.873 35.0835 73.873C35.6555 73.873 36.1725 74.0013 36.6345 74.258C37.0965 74.5073 37.4595 74.8667 37.7235 75.336C37.9948 75.8053 38.1305 76.3517 38.1305 76.975C38.1305 77.5983 37.9911 78.1483 37.7125 78.625C37.4411 79.0943 37.0708 79.4573 36.6015 79.714C36.1321 79.9707 35.6115 80.099 35.0395 80.099ZM35.0395 79.219C35.3988 79.219 35.7361 79.1347 36.0515 78.966C36.3668 78.7973 36.6198 78.5443 36.8105 78.207C37.0085 77.8697 37.1075 77.459 37.1075 76.975C37.1075 76.491 37.0121 76.0803 36.8215 75.743C36.6308 75.4057 36.3815 75.1563 36.0735 74.995C35.7655 74.8263 35.4318 74.742 35.0725 74.742C34.7058 74.742 34.3685 74.8263 34.0605 74.995C33.7598 75.1563 33.5178 75.4057 33.3345 75.743C33.1511 76.0803 33.0595 76.491 33.0595 76.975C33.0595 77.4663 33.1475 77.8807 33.3235 78.218C33.5068 78.5553 33.7488 78.8083 34.0495 78.977C34.3501 79.1383 34.6801 79.219 35.0395 79.219ZM39.0726 76.964C39.0726 76.348 39.1973 75.809 39.4466 75.347C39.6959 74.8777 40.0369 74.5147 40.4696 74.258C40.9096 74.0013 41.3973 73.873 41.9326 73.873C42.4606 73.873 42.9189 73.9867 43.3076 74.214C43.6963 74.4413 43.9859 74.7273 44.1766 75.072V73.972H45.1886V80H44.1766V78.878C43.9786 79.23 43.6816 79.5233 43.2856 79.758C42.8969 79.9853 42.4423 80.099 41.9216 80.099C41.3863 80.099 40.9023 79.967 40.4696 79.703C40.0369 79.439 39.6959 79.0687 39.4466 78.592C39.1973 78.1153 39.0726 77.5727 39.0726 76.964ZM44.1766 76.975C44.1766 76.5203 44.0849 76.1243 43.9016 75.787C43.7183 75.4497 43.4689 75.193 43.1536 75.017C42.8456 74.8337 42.5046 74.742 42.1306 74.742C41.7566 74.742 41.4156 74.83 41.1076 75.006C40.7996 75.182 40.5539 75.4387 40.3706 75.776C40.1873 76.1133 40.0956 76.5093 40.0956 76.964C40.0956 77.426 40.1873 77.8293 40.3706 78.174C40.5539 78.5113 40.7996 78.7717 41.1076 78.955C41.4156 79.131 41.7566 79.219 42.1306 79.219C42.5046 79.219 42.8456 79.131 43.1536 78.955C43.4689 78.7717 43.7183 78.5113 43.9016 78.174C44.0849 77.8293 44.1766 77.4297 44.1766 76.975ZM46.5062 76.964C46.5062 76.348 46.6309 75.809 46.8802 75.347C47.1295 74.8777 47.4705 74.5147 47.9032 74.258C48.3432 74.0013 48.8345 73.873 49.3772 73.873C49.8465 73.873 50.2829 73.983 50.6862 74.203C51.0895 74.4157 51.3975 74.698 51.6102 75.05V71.86H52.6222V80H51.6102V78.867C51.4122 79.2263 51.1189 79.5233 50.7302 79.758C50.3415 79.9853 49.8869 80.099 49.3662 80.099C48.8309 80.099 48.3432 79.967 47.9032 79.703C47.4705 79.439 47.1295 79.0687 46.8802 78.592C46.6309 78.1153 46.5062 77.5727 46.5062 76.964ZM51.6102 76.975C51.6102 76.5203 51.5185 76.1243 51.3352 75.787C51.1519 75.4497 50.9025 75.193 50.5872 75.017C50.2792 74.8337 49.9382 74.742 49.5642 74.742C49.1902 74.742 48.8492 74.83 48.5412 75.006C48.2332 75.182 47.9875 75.4387 47.8042 75.776C47.6209 76.1133 47.5292 76.5093 47.5292 76.964C47.5292 77.426 47.6209 77.8293 47.8042 78.174C47.9875 78.5113 48.2332 78.7717 48.5412 78.955C48.8492 79.131 49.1902 79.219 49.5642 79.219C49.9382 79.219 50.2792 79.131 50.5872 78.955C50.9025 78.7717 51.1519 78.5113 51.3352 78.174C51.5185 77.8293 51.6102 77.4297 51.6102 76.975ZM62.4384 73.972L58.8084 82.838H57.7744L58.9624 79.934L56.5314 73.972H57.6424L59.5344 78.856L61.4044 73.972H62.4384ZM66.0737 80.099C65.509 80.099 64.9957 79.9707 64.5337 79.714C64.079 79.4573 63.7197 79.0943 63.4557 78.625C63.199 78.1483 63.0707 77.5983 63.0707 76.975C63.0707 76.359 63.2027 75.8163 63.4667 75.347C63.738 74.8703 64.1047 74.5073 64.5667 74.258C65.0287 74.0013 65.5457 73.873 66.1177 73.873C66.6897 73.873 67.2067 74.0013 67.6687 74.258C68.1307 74.5073 68.4937 74.8667 68.7577 75.336C69.029 75.8053 69.1647 76.3517 69.1647 76.975C69.1647 77.5983 69.0253 78.1483 68.7467 78.625C68.4753 79.0943 68.105 79.4573 67.6357 79.714C67.1663 79.9707 66.6457 80.099 66.0737 80.099ZM66.0737 79.219C66.433 79.219 66.7703 79.1347 67.0857 78.966C67.401 78.7973 67.654 78.5443 67.8447 78.207C68.0427 77.8697 68.1417 77.459 68.1417 76.975C68.1417 76.491 68.0463 76.0803 67.8557 75.743C67.665 75.4057 67.4157 75.1563 67.1077 74.995C66.7997 74.8263 66.466 74.742 66.1067 74.742C65.74 74.742 65.4027 74.8263 65.0947 74.995C64.794 75.1563 64.552 75.4057 64.3687 75.743C64.1853 76.0803 64.0937 76.491 64.0937 76.975C64.0937 77.4663 64.1817 77.8807 64.3577 78.218C64.541 78.5553 64.783 78.8083 65.0837 78.977C65.3843 79.1383 65.7143 79.219 66.0737 79.219ZM75.8268 73.972V80H74.8258V79.109C74.6351 79.417 74.3675 79.659 74.0228 79.835C73.6855 80.0037 73.3115 80.088 72.9008 80.088C72.4315 80.088 72.0098 79.9927 71.6358 79.802C71.2618 79.604 70.9648 79.3107 70.7448 78.922C70.5321 78.5333 70.4258 78.0603 70.4258 77.503V73.972H71.4158V77.371C71.4158 77.965 71.5661 78.4233 71.8668 78.746C72.1675 79.0613 72.5781 79.219 73.0988 79.219C73.6341 79.219 74.0558 79.054 74.3638 78.724C74.6718 78.394 74.8258 77.9137 74.8258 77.283V73.972H75.8268ZM78.5179 74.951C78.6939 74.6063 78.9433 74.3387 79.2659 74.148C79.5959 73.9573 79.9956 73.862 80.4649 73.862V74.896H80.2009C79.0789 74.896 78.5179 75.5047 78.5179 76.722V80H77.5169V73.972H78.5179V74.951ZM85.5541 72.333V80H84.5531V72.333H85.5541ZM86.8861 76.964C86.8861 76.348 87.0108 75.809 87.2601 75.347C87.5094 74.8777 87.8504 74.5147 88.2831 74.258C88.7231 74.0013 89.2144 73.873 89.7571 73.873C90.2264 73.873 90.6628 73.983 91.0661 74.203C91.4694 74.4157 91.7774 74.698 91.9901 75.05V71.86H93.0021V80H91.9901V78.867C91.7921 79.2263 91.4988 79.5233 91.1101 79.758C90.7214 79.9853 90.2668 80.099 89.7461 80.099C89.2108 80.099 88.7231 79.967 88.2831 79.703C87.8504 79.439 87.5094 79.0687 87.2601 78.592C87.0108 78.1153 86.8861 77.5727 86.8861 76.964ZM91.9901 76.975C91.9901 76.5203 91.8984 76.1243 91.7151 75.787C91.5318 75.4497 91.2824 75.193 90.9671 75.017C90.6591 74.8337 90.3181 74.742 89.9441 74.742C89.5701 74.742 89.2291 74.83 88.9211 75.006C88.6131 75.182 88.3674 75.4387 88.1841 75.776C88.0008 76.1133 87.9091 76.5093 87.9091 76.964C87.9091 77.426 88.0008 77.8293 88.1841 78.174C88.3674 78.5113 88.6131 78.7717 88.9211 78.955C89.2291 79.131 89.5701 79.219 89.9441 79.219C90.3181 79.219 90.6591 79.131 90.9671 78.955C91.2824 78.7717 91.5318 78.5113 91.7151 78.174C91.8984 77.8293 91.9901 77.4297 91.9901 76.975ZM94.8477 72.333H95.9587L94.9027 74.83H94.1987L94.8477 72.333ZM99.2339 80.099C98.7719 80.099 98.3576 80.022 97.9909 79.868C97.6243 79.7067 97.3346 79.4867 97.1219 79.208C96.9093 78.922 96.7919 78.5957 96.7699 78.229H97.8039C97.8333 78.5297 97.9726 78.7753 98.2219 78.966C98.4786 79.1567 98.8123 79.252 99.2229 79.252C99.6043 79.252 99.9049 79.1677 100.125 78.999C100.345 78.8303 100.455 78.6177 100.455 78.361C100.455 78.097 100.338 77.9027 100.103 77.778C99.8683 77.646 99.5053 77.5177 99.0139 77.393C98.5666 77.2757 98.1999 77.1583 97.9139 77.041C97.6353 76.9163 97.3933 76.7367 97.1879 76.502C96.9899 76.26 96.8909 75.9447 96.8909 75.556C96.8909 75.248 96.9826 74.9657 97.1659 74.709C97.3493 74.4523 97.6096 74.2507 97.9469 74.104C98.2843 73.95 98.6693 73.873 99.1019 73.873C99.7693 73.873 100.308 74.0417 100.719 74.379C101.13 74.7163 101.35 75.1783 101.379 75.765H100.378C100.356 75.4497 100.228 75.1967 99.9929 75.006C99.7656 74.8153 99.4576 74.72 99.0689 74.72C98.7096 74.72 98.4236 74.797 98.2109 74.951C97.9983 75.105 97.8919 75.3067 97.8919 75.556C97.8919 75.754 97.9543 75.919 98.0789 76.051C98.2109 76.1757 98.3723 76.2783 98.5629 76.359C98.7609 76.4323 99.0323 76.5167 99.3769 76.612C99.8096 76.7293 100.162 76.8467 100.433 76.964C100.704 77.074 100.935 77.2427 101.126 77.47C101.324 77.6973 101.427 77.9943 101.434 78.361C101.434 78.691 101.342 78.988 101.159 79.252C100.976 79.516 100.715 79.725 100.378 79.879C100.048 80.0257 99.6666 80.099 99.2339 80.099ZM109.619 76.051C109.897 76.095 110.15 76.2087 110.378 76.392C110.612 76.5753 110.796 76.8027 110.928 77.074C111.067 77.3453 111.137 77.635 111.137 77.943C111.137 78.3317 111.038 78.6837 110.84 78.999C110.642 79.307 110.352 79.5527 109.971 79.736C109.597 79.912 109.153 80 108.64 80H105.78V72.333H108.53C109.05 72.333 109.494 72.421 109.861 72.597C110.227 72.7657 110.502 72.9967 110.686 73.29C110.869 73.5833 110.961 73.9133 110.961 74.28C110.961 74.7347 110.836 75.1123 110.587 75.413C110.345 75.7063 110.022 75.919 109.619 76.051ZM106.781 75.644H108.464C108.933 75.644 109.296 75.534 109.553 75.314C109.809 75.094 109.938 74.7897 109.938 74.401C109.938 74.0123 109.809 73.708 109.553 73.488C109.296 73.268 108.926 73.158 108.442 73.158H106.781V75.644ZM108.552 79.175C109.05 79.175 109.439 79.0577 109.718 78.823C109.996 78.5883 110.136 78.262 110.136 77.844C110.136 77.4187 109.989 77.085 109.696 76.843C109.402 76.5937 109.01 76.469 108.519 76.469H106.781V79.175H108.552ZM112.152 76.964C112.152 76.348 112.276 75.809 112.526 75.347C112.775 74.8777 113.116 74.5147 113.549 74.258C113.989 74.0013 114.476 73.873 115.012 73.873C115.54 73.873 115.998 73.9867 116.387 74.214C116.775 74.4413 117.065 74.7273 117.256 75.072V73.972H118.268V80H117.256V78.878C117.058 79.23 116.761 79.5233 116.365 79.758C115.976 79.9853 115.521 80.099 115.001 80.099C114.465 80.099 113.981 79.967 113.549 79.703C113.116 79.439 112.775 79.0687 112.526 78.592C112.276 78.1153 112.152 77.5727 112.152 76.964ZM117.256 76.975C117.256 76.5203 117.164 76.1243 116.981 75.787C116.797 75.4497 116.548 75.193 116.233 75.017C115.925 74.8337 115.584 74.742 115.21 74.742C114.836 74.742 114.495 74.83 114.187 75.006C113.879 75.182 113.633 75.4387 113.45 75.776C113.266 76.1133 113.175 76.5093 113.175 76.964C113.175 77.426 113.266 77.8293 113.45 78.174C113.633 78.5113 113.879 78.7717 114.187 78.955C114.495 79.131 114.836 79.219 115.21 79.219C115.584 79.219 115.925 79.131 116.233 78.955C116.548 78.7717 116.797 78.5113 116.981 78.174C117.164 77.8293 117.256 77.4297 117.256 76.975ZM119.585 76.975C119.585 76.3517 119.71 75.809 119.959 75.347C120.209 74.8777 120.553 74.5147 120.993 74.258C121.441 74.0013 121.95 73.873 122.522 73.873C123.263 73.873 123.872 74.0527 124.348 74.412C124.832 74.7713 125.151 75.27 125.305 75.908H124.227C124.125 75.5413 123.923 75.2517 123.622 75.039C123.329 74.8263 122.962 74.72 122.522 74.72C121.95 74.72 121.488 74.918 121.136 75.314C120.784 75.7027 120.608 76.2563 120.608 76.975C120.608 77.701 120.784 78.262 121.136 78.658C121.488 79.054 121.95 79.252 122.522 79.252C122.962 79.252 123.329 79.1493 123.622 78.944C123.916 78.7387 124.117 78.4453 124.227 78.064H125.305C125.144 78.68 124.821 79.175 124.337 79.549C123.853 79.9157 123.248 80.099 122.522 80.099C121.95 80.099 121.441 79.9707 120.993 79.714C120.553 79.4573 120.209 79.0943 119.959 78.625C119.71 78.1557 119.585 77.6057 119.585 76.975ZM130.007 80L127.642 77.338V80H126.641V71.86H127.642V76.645L129.963 73.972H131.36L128.522 76.975L131.371 80H130.007ZM137.369 80.099C136.907 80.099 136.492 80.022 136.126 79.868C135.759 79.7067 135.469 79.4867 135.257 79.208C135.044 78.922 134.927 78.5957 134.905 78.229H135.939C135.968 78.5297 136.107 78.7753 136.357 78.966C136.613 79.1567 136.947 79.252 137.358 79.252C137.739 79.252 138.04 79.1677 138.26 78.999C138.48 78.8303 138.59 78.6177 138.59 78.361C138.59 78.097 138.472 77.9027 138.238 77.778C138.003 77.646 137.64 77.5177 137.149 77.393C136.701 77.2757 136.335 77.1583 136.049 77.041C135.77 76.9163 135.528 76.7367 135.323 76.502C135.125 76.26 135.026 75.9447 135.026 75.556C135.026 75.248 135.117 74.9657 135.301 74.709C135.484 74.4523 135.744 74.2507 136.082 74.104C136.419 73.95 136.804 73.873 137.237 73.873C137.904 73.873 138.443 74.0417 138.854 74.379C139.264 74.7163 139.484 75.1783 139.514 75.765H138.513C138.491 75.4497 138.362 75.1967 138.128 75.006C137.9 74.8153 137.592 74.72 137.204 74.72C136.844 74.72 136.558 74.797 136.346 74.951C136.133 75.105 136.027 75.3067 136.027 75.556C136.027 75.754 136.089 75.919 136.214 76.051C136.346 76.1757 136.507 76.2783 136.698 76.359C136.896 76.4323 137.167 76.5167 137.512 76.612C137.944 76.7293 138.296 76.8467 138.568 76.964C138.839 77.074 139.07 77.2427 139.261 77.47C139.459 77.6973 139.561 77.9943 139.569 78.361C139.569 78.691 139.477 78.988 139.294 79.252C139.11 79.516 138.85 79.725 138.513 79.879C138.183 80.0257 137.801 80.099 137.369 80.099ZM141.499 72.993C141.308 72.993 141.147 72.927 141.015 72.795C140.883 72.663 140.817 72.5017 140.817 72.311C140.817 72.1203 140.883 71.959 141.015 71.827C141.147 71.695 141.308 71.629 141.499 71.629C141.682 71.629 141.836 71.695 141.961 71.827C142.093 71.959 142.159 72.1203 142.159 72.311C142.159 72.5017 142.093 72.663 141.961 72.795C141.836 72.927 141.682 72.993 141.499 72.993ZM141.983 73.972V80H140.982V73.972H141.983ZM143.315 76.964C143.315 76.348 143.439 75.809 143.689 75.347C143.938 74.8777 144.279 74.5147 144.712 74.258C145.152 74.0013 145.643 73.873 146.186 73.873C146.655 73.873 147.091 73.983 147.495 74.203C147.898 74.4157 148.206 74.698 148.419 75.05V71.86H149.431V80H148.419V78.867C148.221 79.2263 147.927 79.5233 147.539 79.758C147.15 79.9853 146.695 80.099 146.175 80.099C145.639 80.099 145.152 79.967 144.712 79.703C144.279 79.439 143.938 79.0687 143.689 78.592C143.439 78.1153 143.315 77.5727 143.315 76.964ZM148.419 76.975C148.419 76.5203 148.327 76.1243 148.144 75.787C147.96 75.4497 147.711 75.193 147.396 75.017C147.088 74.8337 146.747 74.742 146.373 74.742C145.999 74.742 145.658 74.83 145.35 75.006C145.042 75.182 144.796 75.4387 144.613 75.776C144.429 76.1133 144.338 76.5093 144.338 76.964C144.338 77.426 144.429 77.8293 144.613 78.174C144.796 78.5113 145.042 78.7717 145.35 78.955C145.658 79.131 145.999 79.219 146.373 79.219C146.747 79.219 147.088 79.131 147.396 78.955C147.711 78.7717 147.96 78.5113 148.144 78.174C148.327 77.8293 148.419 77.4297 148.419 76.975ZM156.622 76.755C156.622 76.9457 156.611 77.1473 156.589 77.36H151.771C151.808 77.954 152.01 78.4197 152.376 78.757C152.75 79.087 153.201 79.252 153.729 79.252C154.162 79.252 154.521 79.153 154.807 78.955C155.101 78.7497 155.306 78.4783 155.423 78.141H156.501C156.34 78.7203 156.017 79.1933 155.533 79.56C155.049 79.9193 154.448 80.099 153.729 80.099C153.157 80.099 152.644 79.9707 152.189 79.714C151.742 79.4573 151.39 79.0943 151.133 78.625C150.877 78.1483 150.748 77.5983 150.748 76.975C150.748 76.3517 150.873 75.8053 151.122 75.336C151.372 74.8667 151.72 74.5073 152.167 74.258C152.622 74.0013 153.143 73.873 153.729 73.873C154.301 73.873 154.807 73.9977 155.247 74.247C155.687 74.4963 156.025 74.841 156.259 75.281C156.501 75.7137 156.622 76.205 156.622 76.755ZM155.588 76.546C155.588 76.1647 155.504 75.8383 155.335 75.567C155.167 75.2883 154.936 75.0793 154.642 74.94C154.356 74.7933 154.037 74.72 153.685 74.72C153.179 74.72 152.747 74.8813 152.387 75.204C152.035 75.5267 151.834 75.974 151.782 76.546H155.588Z" fill="white"/>
<path d="M95.6496 43.2614L85.4173 54.7728L80.3011 50.9358" stroke="white" stroke-width="4" stroke-linecap="round" stroke-linejoin="round"/>
<path d="M98.7455 51.0591C100.878 51.0464 102.932 50.252 104.518 48.8266C106.104 47.4013 107.112 45.4438 107.352 43.3248C107.592 41.2058 107.047 39.0724 105.819 37.3286C104.592 35.5848 102.767 34.3517 100.691 33.8626C100.548 33.8198 100.42 33.737 100.322 33.6237C100.225 33.5105 100.161 33.3716 100.14 33.2236C99.883 30.4114 98.6702 27.7723 96.7032 25.7462C94.7363 23.7201 92.1342 22.4295 89.3309 22.0897C86.5276 21.7499 83.6926 22.3814 81.2985 23.8789C78.9045 25.3764 77.0962 27.6494 76.1752 30.3188C76.1142 30.4433 76.0189 30.5477 75.9005 30.6198C75.7821 30.6918 75.6456 30.7285 75.507 30.7255C74.1719 30.8151 72.8675 31.1668 71.6684 31.7606C70.4692 32.3543 69.3987 33.1784 68.518 34.1859C66.7394 36.2206 65.8419 38.8785 66.0229 41.5748C66.204 44.2712 67.4487 46.7853 69.4834 48.5639C70.9641 49.8581 72.7748 50.686 74.6903 50.971" stroke="white" stroke-width="4" stroke-linecap="round" stroke-linejoin="round"/>
</svg>
