<svg width="172" height="113" viewBox="0 0 172 113" fill="none" xmlns="http://www.w3.org/2000/svg">
<rect x="0.5" y="0.5" width="171" height="112" rx="19.5" fill="#E6B5B1" fill-opacity="0.6"/>
<rect x="0.5" y="0.5" width="171" height="112" rx="19.5" stroke="white" stroke-dasharray="22 22"/>
<path d="M22.66 72.03V76.44C22.66 77.06 22.81 77.52 23.11 77.82C23.4167 78.12 23.84 78.27 24.38 78.27C24.9133 78.27 25.33 78.12 25.63 77.82C25.9367 77.52 26.09 77.06 26.09 76.44V72.03H27V76.43C27 77.01 26.8833 77.5 26.65 77.9C26.4167 78.2933 26.1 78.5867 25.7 78.78C25.3067 78.9733 24.8633 79.07 24.37 79.07C23.8767 79.07 23.43 78.9733 23.03 78.78C22.6367 78.5867 22.3233 78.2933 22.09 77.9C21.8633 77.5 21.75 77.01 21.75 76.43V72.03H22.66ZM29.428 74.53C29.608 74.2167 29.8747 73.9567 30.228 73.75C30.588 73.5367 31.0047 73.43 31.478 73.43C31.9647 73.43 32.4047 73.5467 32.798 73.78C33.198 74.0133 33.5114 74.3433 33.738 74.77C33.9647 75.19 34.078 75.68 34.078 76.24C34.078 76.7933 33.9647 77.2867 33.738 77.72C33.5114 78.1533 33.198 78.49 32.798 78.73C32.4047 78.97 31.9647 79.09 31.478 79.09C31.0114 79.09 30.598 78.9867 30.238 78.78C29.8847 78.5667 29.6147 78.3033 29.428 77.99V81.6H28.518V73.52H29.428V74.53ZM33.148 76.24C33.148 75.8267 33.0647 75.4667 32.898 75.16C32.7314 74.8533 32.5047 74.62 32.218 74.46C31.938 74.3 31.628 74.22 31.288 74.22C30.9547 74.22 30.6447 74.3033 30.358 74.47C30.078 74.63 29.8514 74.8667 29.678 75.18C29.5114 75.4867 29.428 75.8433 29.428 76.25C29.428 76.6633 29.5114 77.0267 29.678 77.34C29.8514 77.6467 30.078 77.8833 30.358 78.05C30.6447 78.21 30.9547 78.29 31.288 78.29C31.628 78.29 31.938 78.21 32.218 78.05C32.5047 77.8833 32.7314 77.6467 32.898 77.34C33.0647 77.0267 33.148 76.66 33.148 76.24ZM36.1859 71.6V79H35.2759V71.6H36.1859ZM40.1268 79.09C39.6135 79.09 39.1468 78.9733 38.7268 78.74C38.3135 78.5067 37.9868 78.1767 37.7468 77.75C37.5135 77.3167 37.3968 76.8167 37.3968 76.25C37.3968 75.69 37.5168 75.1967 37.7568 74.77C38.0035 74.3367 38.3368 74.0067 38.7568 73.78C39.1768 73.5467 39.6468 73.43 40.1668 73.43C40.6868 73.43 41.1568 73.5467 41.5768 73.78C41.9968 74.0067 42.3268 74.3333 42.5668 74.76C42.8135 75.1867 42.9368 75.6833 42.9368 76.25C42.9368 76.8167 42.8101 77.3167 42.5568 77.75C42.3101 78.1767 41.9735 78.5067 41.5468 78.74C41.1201 78.9733 40.6468 79.09 40.1268 79.09ZM40.1268 78.29C40.4535 78.29 40.7601 78.2133 41.0468 78.06C41.3335 77.9067 41.5635 77.6767 41.7368 77.37C41.9168 77.0633 42.0068 76.69 42.0068 76.25C42.0068 75.81 41.9201 75.4367 41.7468 75.13C41.5735 74.8233 41.3468 74.5967 41.0668 74.45C40.7868 74.2967 40.4835 74.22 40.1568 74.22C39.8235 74.22 39.5168 74.2967 39.2368 74.45C38.9635 74.5967 38.7435 74.8233 38.5768 75.13C38.4101 75.4367 38.3268 75.81 38.3268 76.25C38.3268 76.6967 38.4068 77.0733 38.5668 77.38C38.7335 77.6867 38.9535 77.9167 39.2268 78.07C39.5001 78.2167 39.8001 78.29 40.1268 78.29ZM43.7933 76.24C43.7933 75.68 43.9066 75.19 44.1333 74.77C44.3599 74.3433 44.6699 74.0133 45.0633 73.78C45.4633 73.5467 45.9066 73.43 46.3933 73.43C46.8733 73.43 47.2899 73.5333 47.6433 73.74C47.9966 73.9467 48.2599 74.2067 48.4333 74.52V73.52H49.3533V79H48.4333V77.98C48.2533 78.3 47.9833 78.5667 47.6233 78.78C47.2699 78.9867 46.8566 79.09 46.3833 79.09C45.8966 79.09 45.4566 78.97 45.0633 78.73C44.6699 78.49 44.3599 78.1533 44.1333 77.72C43.9066 77.2867 43.7933 76.7933 43.7933 76.24ZM48.4333 76.25C48.4333 75.8367 48.3499 75.4767 48.1833 75.17C48.0166 74.8633 47.7899 74.63 47.5033 74.47C47.2233 74.3033 46.9133 74.22 46.5733 74.22C46.2333 74.22 45.9233 74.3 45.6433 74.46C45.3633 74.62 45.1399 74.8533 44.9733 75.16C44.8066 75.4667 44.7233 75.8267 44.7233 76.24C44.7233 76.66 44.8066 77.0267 44.9733 77.34C45.1399 77.6467 45.3633 77.8833 45.6433 78.05C45.9233 78.21 46.2333 78.29 46.5733 78.29C46.9133 78.29 47.2233 78.21 47.5033 78.05C47.7899 77.8833 48.0166 77.6467 48.1833 77.34C48.3499 77.0267 48.4333 76.6633 48.4333 76.25ZM50.5511 76.24C50.5511 75.68 50.6644 75.19 50.8911 74.77C51.1178 74.3433 51.4278 74.0133 51.8211 73.78C52.2211 73.5467 52.6678 73.43 53.1611 73.43C53.5878 73.43 53.9844 73.53 54.3511 73.73C54.7178 73.9233 54.9978 74.18 55.1911 74.5V71.6H56.1111V79H55.1911V77.97C55.0111 78.2967 54.7444 78.5667 54.3911 78.78C54.0378 78.9867 53.6244 79.09 53.1511 79.09C52.6644 79.09 52.2211 78.97 51.8211 78.73C51.4278 78.49 51.1178 78.1533 50.8911 77.72C50.6644 77.2867 50.5511 76.7933 50.5511 76.24ZM55.1911 76.25C55.1911 75.8367 55.1078 75.4767 54.9411 75.17C54.7744 74.8633 54.5478 74.63 54.2611 74.47C53.9811 74.3033 53.6711 74.22 53.3311 74.22C52.9911 74.22 52.6811 74.3 52.4011 74.46C52.1211 74.62 51.8978 74.8533 51.7311 75.16C51.5644 75.4667 51.4811 75.8267 51.4811 76.24C51.4811 76.66 51.5644 77.0267 51.7311 77.34C51.8978 77.6467 52.1211 77.8833 52.4011 78.05C52.6811 78.21 52.9911 78.29 53.3311 78.29C53.6711 78.29 53.9811 78.21 54.2611 78.05C54.5478 77.8833 54.7744 77.6467 54.9411 77.34C55.1078 77.0267 55.1911 76.6633 55.1911 76.25ZM65.0349 73.52L61.7349 81.58H60.7949L61.8749 78.94L59.6649 73.52H60.6749L62.3949 77.96L64.0949 73.52H65.0349ZM68.3397 79.09C67.8264 79.09 67.3597 78.9733 66.9397 78.74C66.5264 78.5067 66.1997 78.1767 65.9597 77.75C65.7264 77.3167 65.6097 76.8167 65.6097 76.25C65.6097 75.69 65.7297 75.1967 65.9697 74.77C66.2164 74.3367 66.5497 74.0067 66.9697 73.78C67.3897 73.5467 67.8597 73.43 68.3797 73.43C68.8997 73.43 69.3697 73.5467 69.7897 73.78C70.2097 74.0067 70.5397 74.3333 70.7797 74.76C71.0264 75.1867 71.1497 75.6833 71.1497 76.25C71.1497 76.8167 71.023 77.3167 70.7697 77.75C70.523 78.1767 70.1864 78.5067 69.7597 78.74C69.333 78.9733 68.8597 79.09 68.3397 79.09ZM68.3397 78.29C68.6664 78.29 68.973 78.2133 69.2597 78.06C69.5464 77.9067 69.7764 77.6767 69.9497 77.37C70.1297 77.0633 70.2197 76.69 70.2197 76.25C70.2197 75.81 70.133 75.4367 69.9597 75.13C69.7864 74.8233 69.5597 74.5967 69.2797 74.45C68.9997 74.2967 68.6964 74.22 68.3697 74.22C68.0364 74.22 67.7297 74.2967 67.4497 74.45C67.1764 74.5967 66.9564 74.8233 66.7897 75.13C66.623 75.4367 66.5397 75.81 66.5397 76.25C66.5397 76.6967 66.6197 77.0733 66.7797 77.38C66.9464 77.6867 67.1664 77.9167 67.4397 78.07C67.713 78.2167 68.013 78.29 68.3397 78.29ZM77.2062 73.52V79H76.2962V78.19C76.1228 78.47 75.8795 78.69 75.5662 78.85C75.2595 79.0033 74.9195 79.08 74.5462 79.08C74.1195 79.08 73.7362 78.9933 73.3962 78.82C73.0562 78.64 72.7862 78.3733 72.5862 78.02C72.3928 77.6667 72.2962 77.2367 72.2962 76.73V73.52H73.1962V76.61C73.1962 77.15 73.3328 77.5667 73.6062 77.86C73.8795 78.1467 74.2528 78.29 74.7262 78.29C75.2128 78.29 75.5962 78.14 75.8762 77.84C76.1562 77.54 76.2962 77.1033 76.2962 76.53V73.52H77.2062ZM79.6527 74.41C79.8127 74.0967 80.0393 73.8533 80.3327 73.68C80.6327 73.5067 80.996 73.42 81.4227 73.42V74.36H81.1827C80.1627 74.36 79.6527 74.9133 79.6527 76.02V79H78.7427V73.52H79.6527V74.41ZM86.0491 72.03V79H85.1391V72.03H86.0491ZM87.2601 76.24C87.2601 75.68 87.3734 75.19 87.6001 74.77C87.8267 74.3433 88.1367 74.0133 88.5301 73.78C88.9301 73.5467 89.3767 73.43 89.8701 73.43C90.2967 73.43 90.6934 73.53 91.0601 73.73C91.4267 73.9233 91.7067 74.18 91.9001 74.5V71.6H92.8201V79H91.9001V77.97C91.7201 78.2967 91.4534 78.5667 91.1001 78.78C90.7467 78.9867 90.3334 79.09 89.8601 79.09C89.3734 79.09 88.9301 78.97 88.5301 78.73C88.1367 78.49 87.8267 78.1533 87.6001 77.72C87.3734 77.2867 87.2601 76.7933 87.2601 76.24ZM91.9001 76.25C91.9001 75.8367 91.8167 75.4767 91.6501 75.17C91.4834 74.8633 91.2567 74.63 90.9701 74.47C90.6901 74.3033 90.3801 74.22 90.0401 74.22C89.7001 74.22 89.3901 74.3 89.1101 74.46C88.8301 74.62 88.6067 74.8533 88.4401 75.16C88.2734 75.4667 88.1901 75.8267 88.1901 76.24C88.1901 76.66 88.2734 77.0267 88.4401 77.34C88.6067 77.6467 88.8301 77.8833 89.1101 78.05C89.3901 78.21 89.7001 78.29 90.0401 78.29C90.3801 78.29 90.6901 78.21 90.9701 78.05C91.2567 77.8833 91.4834 77.6467 91.6501 77.34C91.8167 77.0267 91.9001 76.6633 91.9001 76.25ZM94.4979 72.03H95.5079L94.5479 74.3H93.9079L94.4979 72.03ZM98.4854 79.09C98.0654 79.09 97.6887 79.02 97.3554 78.88C97.0221 78.7333 96.7587 78.5333 96.5654 78.28C96.3721 78.02 96.2654 77.7233 96.2454 77.39H97.1854C97.2121 77.6633 97.3387 77.8867 97.5654 78.06C97.7987 78.2333 98.1021 78.32 98.4754 78.32C98.8221 78.32 99.0954 78.2433 99.2954 78.09C99.4954 77.9367 99.5954 77.7433 99.5954 77.51C99.5954 77.27 99.4887 77.0933 99.2754 76.98C99.0621 76.86 98.7321 76.7433 98.2854 76.63C97.8787 76.5233 97.5454 76.4167 97.2854 76.31C97.0321 76.1967 96.8121 76.0333 96.6254 75.82C96.4454 75.6 96.3554 75.3133 96.3554 74.96C96.3554 74.68 96.4387 74.4233 96.6054 74.19C96.7721 73.9567 97.0087 73.7733 97.3154 73.64C97.6221 73.5 97.9721 73.43 98.3654 73.43C98.9721 73.43 99.4621 73.5833 99.8354 73.89C100.209 74.1967 100.409 74.6167 100.435 75.15H99.5254C99.5054 74.8633 99.3887 74.6333 99.1754 74.46C98.9687 74.2867 98.6887 74.2 98.3354 74.2C98.0087 74.2 97.7487 74.27 97.5554 74.41C97.3621 74.55 97.2654 74.7333 97.2654 74.96C97.2654 75.14 97.3221 75.29 97.4354 75.41C97.5554 75.5233 97.7021 75.6167 97.8754 75.69C98.0554 75.7567 98.3021 75.8333 98.6154 75.92C99.0087 76.0267 99.3287 76.1333 99.5754 76.24C99.8221 76.34 100.032 76.4933 100.205 76.7C100.385 76.9067 100.479 77.1767 100.485 77.51C100.485 77.81 100.402 78.08 100.235 78.32C100.069 78.56 99.8321 78.75 99.5254 78.89C99.2254 79.0233 98.8787 79.09 98.4854 79.09ZM106.666 74.27H105.516V79H104.606V74.27H103.896V73.52H104.606V73.13C104.606 72.5167 104.763 72.07 105.076 71.79C105.396 71.5033 105.906 71.36 106.606 71.36V72.12C106.206 72.12 105.923 72.2 105.756 72.36C105.596 72.5133 105.516 72.77 105.516 73.13V73.52H106.666V74.27ZM108.637 74.41C108.797 74.0967 109.024 73.8533 109.317 73.68C109.617 73.5067 109.98 73.42 110.407 73.42V74.36H110.167C109.147 74.36 108.637 74.9133 108.637 76.02V79H107.727V73.52H108.637V74.41ZM113.848 79.09C113.334 79.09 112.868 78.9733 112.448 78.74C112.034 78.5067 111.708 78.1767 111.468 77.75C111.234 77.3167 111.118 76.8167 111.118 76.25C111.118 75.69 111.238 75.1967 111.478 74.77C111.724 74.3367 112.058 74.0067 112.478 73.78C112.898 73.5467 113.368 73.43 113.888 73.43C114.408 73.43 114.878 73.5467 115.298 73.78C115.718 74.0067 116.048 74.3333 116.288 74.76C116.534 75.1867 116.658 75.6833 116.658 76.25C116.658 76.8167 116.531 77.3167 116.278 77.75C116.031 78.1767 115.694 78.5067 115.268 78.74C114.841 78.9733 114.368 79.09 113.848 79.09ZM113.848 78.29C114.174 78.29 114.481 78.2133 114.768 78.06C115.054 77.9067 115.284 77.6767 115.458 77.37C115.638 77.0633 115.728 76.69 115.728 76.25C115.728 75.81 115.641 75.4367 115.468 75.13C115.294 74.8233 115.068 74.5967 114.788 74.45C114.508 74.2967 114.204 74.22 113.878 74.22C113.544 74.22 113.238 74.2967 112.958 74.45C112.684 74.5967 112.464 74.8233 112.298 75.13C112.131 75.4367 112.048 75.81 112.048 76.25C112.048 76.6967 112.128 77.0733 112.288 77.38C112.454 77.6867 112.674 77.9167 112.948 78.07C113.221 78.2167 113.521 78.29 113.848 78.29ZM120.524 73.42C121.191 73.42 121.731 73.6233 122.144 74.03C122.557 74.43 122.764 75.01 122.764 75.77V79H121.864V75.9C121.864 75.3533 121.727 74.9367 121.454 74.65C121.181 74.3567 120.807 74.21 120.334 74.21C119.854 74.21 119.471 74.36 119.184 74.66C118.904 74.96 118.764 75.3967 118.764 75.97V79H117.854V73.52H118.764V74.3C118.944 74.02 119.187 73.8033 119.494 73.65C119.807 73.4967 120.151 73.42 120.524 73.42ZM125.36 74.27V77.5C125.36 77.7667 125.417 77.9567 125.53 78.07C125.644 78.1767 125.84 78.23 126.12 78.23H126.79V79H125.97C125.464 79 125.084 78.8833 124.83 78.65C124.577 78.4167 124.45 78.0333 124.45 77.5V74.27H123.74V73.52H124.45V72.14H125.36V73.52H126.79V74.27H125.36ZM132.499 79.09C132.079 79.09 131.702 79.02 131.369 78.88C131.036 78.7333 130.772 78.5333 130.579 78.28C130.386 78.02 130.279 77.7233 130.259 77.39H131.199C131.226 77.6633 131.352 77.8867 131.579 78.06C131.812 78.2333 132.116 78.32 132.489 78.32C132.836 78.32 133.109 78.2433 133.309 78.09C133.509 77.9367 133.609 77.7433 133.609 77.51C133.609 77.27 133.502 77.0933 133.289 76.98C133.076 76.86 132.746 76.7433 132.299 76.63C131.892 76.5233 131.559 76.4167 131.299 76.31C131.046 76.1967 130.826 76.0333 130.639 75.82C130.459 75.6 130.369 75.3133 130.369 74.96C130.369 74.68 130.452 74.4233 130.619 74.19C130.786 73.9567 131.022 73.7733 131.329 73.64C131.636 73.5 131.986 73.43 132.379 73.43C132.986 73.43 133.476 73.5833 133.849 73.89C134.222 74.1967 134.422 74.6167 134.449 75.15H133.539C133.519 74.8633 133.402 74.6333 133.189 74.46C132.982 74.2867 132.702 74.2 132.349 74.2C132.022 74.2 131.762 74.27 131.569 74.41C131.376 74.55 131.279 74.7333 131.279 74.96C131.279 75.14 131.336 75.29 131.449 75.41C131.569 75.5233 131.716 75.6167 131.889 75.69C132.069 75.7567 132.316 75.8333 132.629 75.92C133.022 76.0267 133.342 76.1333 133.589 76.24C133.836 76.34 134.046 76.4933 134.219 76.7C134.399 76.9067 134.492 77.1767 134.499 77.51C134.499 77.81 134.416 78.08 134.249 78.32C134.082 78.56 133.846 78.75 133.539 78.89C133.239 79.0233 132.892 79.09 132.499 79.09ZM136.254 72.63C136.08 72.63 135.934 72.57 135.814 72.45C135.694 72.33 135.634 72.1833 135.634 72.01C135.634 71.8367 135.694 71.69 135.814 71.57C135.934 71.45 136.08 71.39 136.254 71.39C136.42 71.39 136.56 71.45 136.674 71.57C136.794 71.69 136.854 71.8367 136.854 72.01C136.854 72.1833 136.794 72.33 136.674 72.45C136.56 72.57 136.42 72.63 136.254 72.63ZM136.694 73.52V79H135.784V73.52H136.694ZM137.905 76.24C137.905 75.68 138.018 75.19 138.245 74.77C138.471 74.3433 138.781 74.0133 139.175 73.78C139.575 73.5467 140.021 73.43 140.515 73.43C140.941 73.43 141.338 73.53 141.705 73.73C142.071 73.9233 142.351 74.18 142.545 74.5V71.6H143.465V79H142.545V77.97C142.365 78.2967 142.098 78.5667 141.745 78.78C141.391 78.9867 140.978 79.09 140.505 79.09C140.018 79.09 139.575 78.97 139.175 78.73C138.781 78.49 138.471 78.1533 138.245 77.72C138.018 77.2867 137.905 76.7933 137.905 76.24ZM142.545 76.25C142.545 75.8367 142.461 75.4767 142.295 75.17C142.128 74.8633 141.901 74.63 141.615 74.47C141.335 74.3033 141.025 74.22 140.685 74.22C140.345 74.22 140.035 74.3 139.755 74.46C139.475 74.62 139.251 74.8533 139.085 75.16C138.918 75.4667 138.835 75.8267 138.835 76.24C138.835 76.66 138.918 77.0267 139.085 77.34C139.251 77.6467 139.475 77.8833 139.755 78.05C140.035 78.21 140.345 78.29 140.685 78.29C141.025 78.29 141.335 78.21 141.615 78.05C141.901 77.8833 142.128 77.6467 142.295 77.34C142.461 77.0267 142.545 76.6633 142.545 76.25ZM150.002 76.05C150.002 76.2233 149.992 76.4067 149.972 76.6H145.592C145.626 77.14 145.809 77.5633 146.142 77.87C146.482 78.17 146.892 78.32 147.372 78.32C147.766 78.32 148.092 78.23 148.352 78.05C148.619 77.8633 148.806 77.6167 148.912 77.31H149.892C149.746 77.8367 149.452 78.2667 149.012 78.6C148.572 78.9267 148.026 79.09 147.372 79.09C146.852 79.09 146.386 78.9733 145.972 78.74C145.566 78.5067 145.246 78.1767 145.012 77.75C144.779 77.3167 144.662 76.8167 144.662 76.25C144.662 75.6833 144.776 75.1867 145.002 74.76C145.229 74.3333 145.546 74.0067 145.952 73.78C146.366 73.5467 146.839 73.43 147.372 73.43C147.892 73.43 148.352 73.5433 148.752 73.77C149.152 73.9967 149.459 74.31 149.672 74.71C149.892 75.1033 150.002 75.55 150.002 76.05ZM149.062 75.86C149.062 75.5133 148.986 75.2167 148.832 74.97C148.679 74.7167 148.469 74.5267 148.202 74.4C147.942 74.2667 147.652 74.2 147.332 74.2C146.872 74.2 146.479 74.3467 146.152 74.64C145.832 74.9333 145.649 75.34 145.602 75.86H149.062Z" fill="white"/>
<path d="M95.6496 43.2614L85.4173 54.7728L80.3011 50.9358" stroke="white" stroke-width="4" stroke-linecap="round" stroke-linejoin="round"/>
<path d="M98.7455 51.0591C100.878 51.0464 102.932 50.252 104.518 48.8266C106.104 47.4013 107.112 45.4438 107.352 43.3248C107.592 41.2058 107.047 39.0724 105.819 37.3286C104.592 35.5848 102.767 34.3517 100.691 33.8626C100.548 33.8198 100.42 33.737 100.322 33.6237C100.225 33.5105 100.161 33.3716 100.14 33.2236C99.883 30.4114 98.6702 27.7723 96.7032 25.7462C94.7363 23.7201 92.1342 22.4295 89.3309 22.0897C86.5276 21.7499 83.6926 22.3814 81.2985 23.8789C78.9045 25.3764 77.0962 27.6494 76.1752 30.3188C76.1142 30.4433 76.0189 30.5477 75.9005 30.6198C75.7821 30.6918 75.6456 30.7285 75.507 30.7255C74.1719 30.8151 72.8675 31.1668 71.6684 31.7606C70.4692 32.3543 69.3987 33.1784 68.518 34.1859C66.7394 36.2206 65.8419 38.8785 66.0229 41.5748C66.204 44.2712 67.4487 46.7853 69.4834 48.5639C70.9641 49.8581 72.7748 50.686 74.6903 50.971" stroke="white" stroke-width="4" stroke-linecap="round" stroke-linejoin="round"/>
</svg>
