<svg width="13" height="13" viewBox="0 0 13 13" fill="none" xmlns="http://www.w3.org/2000/svg">
<path d="M8.53091 3.65106L4.46606 5.68342" stroke="white" stroke-linecap="round" stroke-linejoin="round"/>
<path d="M10.1666 4.66667C11.1791 4.66667 11.9999 3.84586 11.9999 2.83333C11.9999 1.82081 11.1791 1 10.1666 1C9.15406 1 8.33325 1.82081 8.33325 2.83333C8.33325 3.84586 9.15406 4.66667 10.1666 4.66667Z" stroke="white" stroke-linecap="round" stroke-linejoin="round"/>
<path d="M2.83333 8.33335C3.84586 8.33335 4.66667 7.51254 4.66667 6.50002C4.66667 5.4875 3.84586 4.66669 2.83333 4.66669C1.82081 4.66669 1 5.4875 1 6.50002C1 7.51254 1.82081 8.33335 2.83333 8.33335Z" stroke="white" stroke-linecap="round" stroke-linejoin="round"/>
<path d="M10.1666 12C11.1791 12 11.9999 11.1792 11.9999 10.1666C11.9999 9.15412 11.1791 8.33331 10.1666 8.33331C9.15406 8.33331 8.33325 9.15412 8.33325 10.1666C8.33325 11.1792 9.15406 12 10.1666 12Z" stroke="white" stroke-linecap="round" stroke-linejoin="round"/>
<path d="M4 8L8.06485 10.0324" stroke="white" stroke-linecap="round" stroke-linejoin="round"/>
</svg>
