<svg width="25" height="25" viewBox="0 0 25 25" fill="none" xmlns="http://www.w3.org/2000/svg">
<g clip-path="url(#clip0_1_924)">
<path d="M19.5465 24.1072C19.0535 24.1072 18.6537 23.7074 18.6537 23.2143C18.6537 22.7213 19.0535 22.3215 19.5465 22.3215C20.0398 22.3215 20.4394 22.7213 20.4394 23.2143C20.4394 23.7074 20.0398 24.1072 19.5465 24.1072Z" stroke="black" stroke-width="1.5" stroke-linecap="round" stroke-linejoin="round"/>
<path d="M7.93943 24.1072C7.44632 24.1072 7.04657 23.7074 7.04657 23.2143C7.04657 22.7213 7.44632 22.3215 7.93943 22.3215C8.43255 22.3215 8.83228 22.7213 8.83228 23.2143C8.83228 23.7074 8.43255 24.1072 7.93943 24.1072Z" stroke="black" stroke-width="1.5" stroke-linecap="round" stroke-linejoin="round"/>
<path d="M0.892944 0.892883H5.35723L5.82716 5.35717M5.82716 5.35717L6.97466 16.2584C7.07032 17.1672 7.83669 17.8572 8.75055 17.8572H20.0344C20.8538 17.8572 21.5681 17.2995 21.7669 16.5046L23.999 7.57599C24.2808 6.44894 23.4283 5.35717 22.2665 5.35717H5.82716Z" stroke="black" stroke-width="1.5" stroke-linecap="round" stroke-linejoin="round"/>
<path d="M17.151 11.6072H11.7938" stroke="black" stroke-width="1.5" stroke-linecap="round" stroke-linejoin="round"/>
</g>
<defs>
<clipPath id="clip0_1_924">
<rect width="25" height="25" fill="white"/>
</clipPath>
</defs>
</svg>
